<?xml version="1.0" standalone="no"?>
<!DOCTYPE svg PUBLIC "-//W3C//DTD SVG 20010904//EN"
 "http://www.w3.org/TR/2001/REC-SVG-20010904/DTD/svg10.dtd">
<svg version="1.0" xmlns="http://www.w3.org/2000/svg"
 width="32.000000pt" height="32.000000pt" viewBox="0 0 32.000000 32.000000"
 preserveAspectRatio="xMidYMid meet">

<g transform="translate(0.000000,32.000000) scale(0.100000,-0.100000)"
fill="#000000" stroke="none">
<path d="M27 163 c-3 -3 7 -16 24 -30 l30 -25 -26 -26 c-22 -22 -28 -24 -36
-12 -5 8 -9 10 -9 4 0 -5 5 -15 11 -21 9 -9 19 -4 39 18 l27 30 25 -30 c14
-16 28 -27 31 -24 3 3 -7 16 -24 30 -32 27 -30 47 4 38 17 -5 19 -4 7 4 -12 8
-12 13 -3 22 10 10 14 7 22 -12 6 -15 10 -18 10 -8 1 22 -25 44 -34 29 -4 -6
-13 -9 -21 -6 -8 3 -11 0 -8 -8 11 -28 -15 -25 -39 3 -14 17 -27 27 -30 24z"/>
<path d="M175 120 c4 -6 11 -8 16 -5 14 9 11 15 -7 15 -8 0 -12 -5 -9 -10z"/>
<path d="M245 123 c22 -3 44 -10 48 -16 6 -8 7 -7 4 3 -2 10 -18 15 -48 16
-44 1 -44 1 -4 -3z"/>
<path d="M0 99 c0 -5 9 -9 20 -9 11 0 20 2 20 4 0 2 -9 6 -20 9 -11 3 -20 1
-20 -4z"/>
<path d="M190 90 c0 -5 5 -10 11 -10 5 0 7 5 4 10 -3 6 -8 10 -11 10 -2 0 -4
-4 -4 -10z"/>
<path d="M255 93 c24 -6 44 -23 27 -23 -7 0 -12 -5 -12 -11 0 -8 5 -8 15 1 20
16 2 40 -29 39 -20 -1 -20 -2 -1 -6z"/>
<path d="M170 83 c0 -7 18 -22 40 -33 22 -11 40 -18 40 -15 0 2 -15 12 -32 21
-18 9 -36 22 -40 28 -6 8 -8 7 -8 -1z"/>
<path d="M71 44 c0 -11 3 -14 6 -6 3 7 2 16 -1 19 -3 4 -6 -2 -5 -13z"/>
</g>
</svg>
